<mxfile host="app.diagrams.net" modified="2024-01-22T16:54:16.412Z" agent="Mozilla/5.0 (Windows NT 10.0; Win64; x64) AppleWebKit/537.36 (KHTML, like Gecko) Chrome/120.0.0.0 Safari/537.36 Edg/120.0.0.0" version="22.1.18" etag="seNASZEmzao96CW2Clhq" type="github">
  <diagram name="Page-1" id="3IiLchZ-QjoqFkMmHt3N">
    <mxGraphModel>
      <root>
        <mxCell id="0" />
        <mxCell id="1" parent="0" />
      </root>
    </mxGraphModel>
  </diagram>
</mxfile>
